<svg width="1600" height="900" viewBox="0 0 1600 900" fill="none" xmlns="http://www.w3.org/2000/svg">
  <defs>
    <linearGradient id="bg" x1="172" y1="86" x2="1407" y2="820" gradientUnits="userSpaceOnUse">
      <stop stop-color="#1B2238"/>
      <stop offset="1" stop-color="#0E1322"/>
    </linearGradient>
    <radialGradient id="glowLeft" cx="0" cy="0" r="1" gradientUnits="userSpaceOnUse" gradientTransform="translate(357 271) rotate(90) scale(328 486)">
      <stop stop-color="#7AA2F7" stop-opacity="0.3"/>
      <stop offset="1" stop-color="#7AA2F7" stop-opacity="0"/>
    </radialGradient>
    <radialGradient id="glowRight" cx="0" cy="0" r="1" gradientUnits="userSpaceOnUse" gradientTransform="translate(1219 629) rotate(90) scale(320 470)">
      <stop stop-color="#E0AF68" stop-opacity="0.28"/>
      <stop offset="1" stop-color="#E0AF68" stop-opacity="0"/>
    </radialGradient>
    <linearGradient id="accentStroke" x1="372" y1="608" x2="1235" y2="289" gradientUnits="userSpaceOnUse">
      <stop stop-color="#E0AF68"/>
      <stop offset="1" stop-color="#7AA2F7"/>
    </linearGradient>
    <filter id="softBlur" x="-80" y="-80" width="1760" height="1060" filterUnits="userSpaceOnUse" color-interpolation-filters="sRGB">
      <feGaussianBlur stdDeviation="40"/>
    </filter>
  </defs>

  <rect width="1600" height="900" rx="36" fill="url(#bg)"/>
  <g filter="url(#softBlur)">
    <circle cx="357" cy="271" r="176" fill="url(#glowLeft)"/>
    <circle cx="1219" cy="629" r="170" fill="url(#glowRight)"/>
  </g>

  <rect x="78" y="72" width="1444" height="756" rx="32" fill="rgba(36,40,59,0.72)" stroke="rgba(192,202,245,0.18)"/>

  <g opacity="0.96">
    <rect x="520" y="84" width="560" height="272" rx="30" fill="#171D30" stroke="rgba(192,202,245,0.16)"/>
    <text x="562" y="146" fill="#E0AF68" font-family="'Avenir Next', 'Segoe UI', sans-serif" font-size="24" font-weight="700" letter-spacing="3">RESTART TROUBLESHOOTING</text>
    <text x="562" y="196" fill="#C0CAF5" font-family="'Iowan Old Style', 'Palatino Linotype', serif" font-size="40" font-weight="700">
      <tspan x="562" dy="0">Turn it off.</tspan>
      <tspan x="562" dy="40">Turn it on.</tspan>
      <tspan x="562" dy="40">Annoyingly effective.</tspan>
    </text>
  </g>

  <g>
    <rect x="266" y="276" width="420" height="300" rx="34" fill="#1B2338" stroke="#7AA2F7" stroke-opacity="0.45" stroke-width="3"/>
    <rect x="304" y="316" width="344" height="194" rx="24" fill="#0F1424" stroke="rgba(192,202,245,0.16)"/>
    <rect x="376" y="542" width="198" height="18" rx="9" fill="#2A3148"/>
    <rect x="404" y="564" width="142" height="18" rx="9" fill="#20283F"/>

    <path d="M476 369V420" stroke="#7AA2F7" stroke-width="10" stroke-linecap="round"/>
    <path d="M524 388C537 401 544 419 544 438C544 476 513 507 476 507C438 507 407 476 407 438C407 419 414 401 428 388" stroke="#7AA2F7" stroke-width="10" stroke-linecap="round"/>

    <rect x="336" y="344" width="88" height="16" rx="8" fill="#C0CAF5" fill-opacity="0.12"/>
    <rect x="336" y="370" width="68" height="10" rx="5" fill="#E0AF68" fill-opacity="0.82"/>
    <rect x="336" y="388" width="82" height="10" rx="5" fill="#C0CAF5" fill-opacity="0.28"/>

    <rect x="530" y="344" width="88" height="16" rx="8" fill="#C0CAF5" fill-opacity="0.12"/>
    <rect x="530" y="370" width="54" height="10" rx="5" fill="#7AA2F7" fill-opacity="0.82"/>
    <rect x="530" y="388" width="76" height="10" rx="5" fill="#C0CAF5" fill-opacity="0.28"/>
  </g>

  <g>
    <path d="M719 426H935" stroke="url(#accentStroke)" stroke-width="7" stroke-linecap="round" stroke-dasharray="14 18"/>
    <circle cx="719" cy="426" r="12" fill="#E0AF68"/>
    <circle cx="935" cy="426" r="12" fill="#7AA2F7"/>
  </g>

  <g>
    <rect x="960" y="254" width="374" height="374" rx="42" fill="#1B2338" stroke="rgba(224,175,104,0.32)" stroke-width="3"/>
    <circle cx="1147" cy="441" r="112" fill="#11182A" stroke="#E0AF68" stroke-width="3"/>
    <circle cx="1105" cy="406" r="10" fill="#E0AF68"/>
    <circle cx="1189" cy="406" r="10" fill="#E0AF68"/>
    <path d="M1091 480C1106 501 1124 512 1147 512C1170 512 1189 501 1203 480" stroke="#E0AF68" stroke-width="9" stroke-linecap="round"/>
    <text x="1022" y="311" fill="#C0CAF5" font-family="'Avenir Next', 'Segoe UI', sans-serif" font-size="22" font-weight="600" letter-spacing="1.2">SYSTEM AFTER REBOOT</text>
  </g>

  <g opacity="0.9">
    <rect x="286" y="653" width="1032" height="104" rx="26" fill="#171D30" stroke="rgba(192,202,245,0.12)"/>
    <text x="334" y="704" fill="#A9B1D6" font-family="'Avenir Next', 'Segoe UI', sans-serif" font-size="28" font-weight="600">
      <tspan x="334" dy="0">Restarting clears bad temporary state, resets hung processes, reconnects devices,</tspan>
      <tspan x="334" dy="36">and gives the system another shot at a clean startup sequence.</tspan>
    </text>
  </g>
</svg>
